<svg id="svg" version="1.1" xmlns="http://www.w3.org/2000/svg" xmlns:xlink="http://www.w3.org/1999/xlink" width="400" height="400" viewBox="0, 0, 400,400"><g id="svgg"><path id="path0" d="M180.640 18.693 C 180.285 19.048,176.190 19.581,171.700 19.856 C 169.885 19.968,168.400 20.226,168.400 20.429 C 168.400 20.633,167.140 20.800,165.600 20.800 C 164.000 20.800,162.800 20.971,162.800 21.200 C 162.800 21.420,162.170 21.600,161.400 21.600 C 160.630 21.600,160.000 21.780,160.000 22.000 C 160.000 22.220,159.178 22.400,158.174 22.400 C 157.169 22.400,156.009 22.581,155.595 22.803 C 155.181 23.024,154.383 23.243,153.821 23.290 C 153.260 23.336,152.800 23.515,152.800 23.687 C 152.800 23.859,152.080 24.000,151.200 24.000 C 150.320 24.000,149.600 24.180,149.600 24.400 C 149.600 24.620,149.060 24.800,148.400 24.800 C 147.740 24.800,147.200 24.980,147.200 25.200 C 147.200 25.420,146.491 25.600,145.624 25.600 C 144.757 25.600,143.936 25.780,143.800 26.000 C 143.664 26.220,143.124 26.400,142.600 26.400 C 142.076 26.400,141.555 26.550,141.442 26.732 C 141.329 26.915,140.193 27.296,138.918 27.579 C 137.643 27.862,136.114 28.342,135.520 28.647 C 134.926 28.951,134.071 29.200,133.620 29.200 C 133.169 29.200,132.800 29.355,132.800 29.545 C 132.800 29.735,131.451 30.320,129.802 30.845 C 128.153 31.370,126.803 31.935,126.802 32.100 C 126.801 32.265,126.451 32.400,126.024 32.400 C 125.597 32.400,125.136 32.580,125.000 32.800 C 124.864 33.020,124.448 33.204,124.076 33.209 C 123.704 33.214,122.950 33.570,122.400 34.000 C 121.850 34.430,121.085 34.786,120.700 34.791 C 120.315 34.796,120.000 34.980,120.000 35.200 C 120.000 35.420,119.640 35.600,119.200 35.600 C 118.760 35.600,118.400 35.780,118.400 36.000 C 118.400 36.220,118.129 36.400,117.798 36.400 C 117.001 36.400,110.800 39.656,110.800 40.074 C 110.800 40.253,110.528 40.400,110.195 40.400 C 109.575 40.400,107.962 41.187,107.596 41.668 C 107.484 41.815,107.128 41.995,106.806 42.068 C 106.483 42.141,105.975 42.427,105.677 42.704 C 105.379 42.981,104.970 43.105,104.768 42.980 C 104.565 42.855,104.400 42.922,104.400 43.128 C 104.400 43.334,103.860 43.727,103.200 44.000 C 102.540 44.273,102.000 44.625,102.000 44.781 C 102.000 44.937,101.510 45.320,100.912 45.632 C 99.767 46.229,96.101 48.556,95.375 49.146 C 95.141 49.336,94.511 49.724,93.975 50.009 C 93.439 50.293,92.709 50.857,92.353 51.263 C 91.997 51.668,91.452 52.000,91.141 52.000 C 90.831 52.000,90.317 52.360,90.000 52.800 C 89.683 53.240,89.205 53.600,88.939 53.600 C 88.672 53.600,88.340 53.960,88.200 54.400 C 88.060 54.840,87.680 55.200,87.355 55.200 C 87.030 55.200,86.327 55.637,85.793 56.171 C 85.259 56.705,84.277 57.464,83.611 57.857 C 82.945 58.251,82.400 58.714,82.400 58.886 C 82.400 59.059,82.237 59.200,82.039 59.200 C 81.652 59.200,79.574 60.914,77.189 63.200 C 73.722 66.524,72.057 67.924,71.836 67.703 C 71.706 67.573,71.600 67.772,71.600 68.146 C 71.600 68.519,71.285 68.944,70.900 69.090 C 70.011 69.427,69.427 70.011,69.090 70.900 C 68.944 71.285,68.539 71.600,68.189 71.600 C 67.839 71.600,67.664 71.780,67.800 72.000 C 67.936 72.220,67.737 72.400,67.357 72.400 C 66.977 72.400,66.768 72.501,66.892 72.625 C 67.016 72.749,66.461 73.531,65.659 74.362 C 62.753 77.372,60.000 80.551,60.000 80.895 C 60.000 81.089,59.820 81.136,59.600 81.000 C 59.380 80.864,59.200 81.004,59.200 81.311 C 59.200 81.618,58.300 82.793,57.200 83.923 C 56.100 85.052,55.200 86.126,55.200 86.310 C 55.200 86.493,54.570 87.331,53.800 88.172 C 53.030 89.013,52.397 89.813,52.394 89.950 C 52.390 90.088,51.837 90.824,51.165 91.588 C 50.492 92.351,49.646 93.476,49.285 94.088 C 48.923 94.699,48.486 95.200,48.314 95.200 C 48.141 95.200,48.000 95.442,48.000 95.738 C 48.000 96.034,47.640 96.602,47.200 97.000 C 46.760 97.398,46.400 97.889,46.400 98.090 C 46.400 98.291,45.905 99.211,45.300 100.135 C 43.711 102.559,43.300 103.245,42.565 104.700 C 42.204 105.415,41.749 106.000,41.554 106.000 C 41.359 106.000,41.200 106.360,41.200 106.800 C 41.200 107.240,41.020 107.600,40.800 107.600 C 40.580 107.600,40.400 107.920,40.400 108.312 C 40.400 108.703,40.040 109.283,39.600 109.600 C 39.160 109.917,38.800 110.499,38.800 110.892 C 38.800 111.286,38.440 111.916,38.000 112.293 C 37.560 112.670,37.200 113.163,37.201 113.389 C 37.203 113.953,35.471 117.368,35.100 117.533 C 34.935 117.607,34.800 118.012,34.800 118.433 C 34.800 118.855,34.620 119.200,34.400 119.200 C 34.180 119.200,34.000 119.560,34.000 120.000 C 34.000 120.440,33.820 120.800,33.600 120.800 C 33.380 120.800,33.200 121.160,33.200 121.600 C 33.200 122.040,33.009 122.400,32.776 122.400 C 32.543 122.400,32.455 122.565,32.580 122.768 C 32.705 122.970,32.529 123.414,32.189 123.753 C 31.850 124.093,31.615 124.423,31.669 124.486 C 31.723 124.549,31.428 125.410,31.014 126.400 C 30.600 127.390,30.287 128.318,30.318 128.462 C 30.349 128.606,30.110 128.943,29.787 129.211 C 29.464 129.479,29.200 130.115,29.200 130.625 C 29.200 131.135,29.051 131.645,28.870 131.757 C 28.688 131.869,28.202 133.140,27.790 134.580 C 27.378 136.021,26.897 137.200,26.721 137.200 C 26.544 137.200,26.400 137.729,26.400 138.376 C 26.400 139.023,26.220 139.664,26.000 139.800 C 25.780 139.936,25.600 140.489,25.600 141.029 C 25.600 141.569,25.420 142.368,25.200 142.805 C 24.980 143.242,24.620 143.958,24.400 144.395 C 24.180 144.832,24.000 145.732,24.000 146.395 C 24.000 147.058,23.849 147.600,23.664 147.600 C 23.479 147.600,23.103 148.635,22.829 149.900 C 22.554 151.165,22.165 152.513,21.965 152.895 C 21.764 153.277,21.600 153.952,21.600 154.395 C 21.600 154.838,21.420 155.200,21.200 155.200 C 20.980 155.200,20.800 156.100,20.800 157.200 C 20.800 158.300,20.620 159.200,20.400 159.200 C 20.178 159.200,20.000 160.267,20.000 161.600 C 20.000 162.933,19.822 164.000,19.600 164.000 C 19.380 164.000,19.200 164.529,19.200 165.176 C 19.200 165.823,19.020 166.464,18.800 166.600 C 18.580 166.736,18.400 168.176,18.400 169.800 C 18.400 171.424,18.220 172.864,18.000 173.000 C 17.780 173.136,17.600 174.036,17.600 175.000 C 17.600 175.964,17.438 176.853,17.240 176.975 C 17.042 177.098,16.855 179.583,16.825 182.499 C 16.794 185.485,16.602 187.858,16.385 187.933 C 15.851 188.118,15.866 209.600,16.400 209.600 C 16.647 209.600,16.800 211.659,16.800 214.976 C 16.800 218.129,16.965 220.455,17.200 220.600 C 17.420 220.736,17.600 221.636,17.600 222.600 C 17.600 223.564,17.780 224.464,18.000 224.600 C 18.220 224.736,18.400 226.187,18.400 227.824 C 18.400 229.461,18.560 230.800,18.756 230.800 C 19.157 230.800,19.551 232.688,19.862 236.100 C 19.977 237.365,20.235 238.400,20.436 238.400 C 20.636 238.400,20.800 239.174,20.800 240.120 C 20.800 241.066,20.979 242.019,21.198 242.238 C 21.416 242.456,21.636 243.122,21.685 243.718 C 21.734 244.313,21.915 244.800,22.087 244.800 C 22.259 244.800,22.400 245.342,22.400 246.005 C 22.400 246.668,22.580 247.568,22.800 248.005 C 23.020 248.442,23.380 249.158,23.600 249.595 C 23.820 250.032,24.000 250.850,24.000 251.414 C 24.000 251.978,24.360 253.184,24.800 254.094 C 25.240 255.005,25.600 256.256,25.600 256.875 C 25.600 257.494,25.780 258.000,26.000 258.000 C 26.220 258.000,26.400 258.540,26.400 259.200 C 26.400 259.860,26.544 260.400,26.721 260.400 C 26.897 260.400,27.378 261.579,27.790 263.020 C 28.202 264.460,28.688 265.731,28.870 265.843 C 29.051 265.955,29.200 266.378,29.200 266.783 C 29.200 267.188,29.733 268.533,30.385 269.772 C 31.037 271.012,31.622 272.335,31.685 272.713 C 31.748 273.091,32.027 273.640,32.304 273.932 C 32.581 274.225,32.705 274.630,32.580 274.832 C 32.455 275.035,32.543 275.200,32.776 275.200 C 33.009 275.200,33.200 275.560,33.200 276.000 C 33.200 276.440,33.380 276.800,33.600 276.800 C 33.820 276.800,34.000 277.160,34.000 277.600 C 34.000 278.040,34.135 278.401,34.300 278.403 C 34.659 278.407,35.600 280.344,35.600 281.080 C 35.600 281.366,35.780 281.600,36.000 281.600 C 36.220 281.600,36.400 281.960,36.400 282.400 C 36.400 282.840,36.580 283.200,36.800 283.200 C 37.020 283.200,37.200 283.560,37.200 284.000 C 37.200 284.440,37.380 284.800,37.600 284.800 C 37.820 284.800,38.000 285.070,38.000 285.400 C 38.000 285.730,38.180 286.000,38.400 286.000 C 38.620 286.000,38.800 286.320,38.800 286.712 C 38.800 287.103,39.160 287.683,39.600 288.000 C 40.040 288.317,40.400 288.771,40.400 289.009 C 40.400 289.675,41.363 291.593,41.700 291.597 C 41.865 291.599,42.002 291.825,42.005 292.100 C 42.008 292.375,42.374 293.050,42.819 293.600 C 44.014 295.080,46.259 298.694,46.813 300.031 C 47.079 300.674,47.455 301.200,47.649 301.200 C 47.842 301.200,48.000 301.394,48.000 301.631 C 48.000 301.868,48.540 302.602,49.200 303.262 C 49.860 303.922,50.400 304.718,50.400 305.031 C 50.400 305.344,50.541 305.600,50.714 305.600 C 50.886 305.600,51.327 306.095,51.693 306.700 C 52.059 307.305,53.085 308.586,53.974 309.546 C 54.863 310.506,55.492 311.451,55.372 311.646 C 55.251 311.841,55.439 312.000,55.789 312.000 C 56.139 312.000,56.540 312.315,56.681 312.700 C 56.822 313.085,57.446 313.897,58.068 314.503 C 58.691 315.110,59.200 315.886,59.200 316.227 C 59.200 316.568,59.380 316.736,59.600 316.600 C 59.820 316.464,60.000 316.538,60.000 316.764 C 60.000 317.207,60.844 318.171,65.819 323.410 C 67.590 325.275,69.255 326.800,69.519 326.800 C 69.784 326.800,69.979 326.935,69.953 327.100 C 69.830 327.874,70.035 328.426,70.368 328.220 C 70.882 327.902,72.065 329.171,71.742 329.694 C 71.596 329.930,71.652 330.015,71.866 329.883 C 72.080 329.751,73.649 330.970,75.353 332.593 C 77.057 334.216,79.025 335.988,79.726 336.531 C 80.427 337.074,81.720 338.179,82.600 338.987 C 83.480 339.796,85.190 341.100,86.400 341.886 C 87.610 342.671,88.891 343.649,89.247 344.057 C 89.603 344.466,90.053 344.800,90.247 344.800 C 90.441 344.801,91.118 345.247,91.752 345.792 C 92.386 346.337,93.106 346.668,93.352 346.527 C 93.598 346.387,93.674 346.412,93.519 346.583 C 93.196 346.942,94.132 348.000,94.771 348.000 C 95.007 348.000,95.200 348.180,95.200 348.400 C 95.200 348.620,95.571 348.800,96.024 348.800 C 96.477 348.800,96.753 348.953,96.637 349.140 C 96.522 349.327,96.916 349.732,97.514 350.040 C 98.111 350.348,98.949 350.915,99.375 351.300 C 99.802 351.685,100.387 352.000,100.675 352.000 C 100.964 352.000,101.200 352.180,101.200 352.400 C 101.200 352.620,101.526 352.800,101.925 352.800 C 102.323 352.800,102.999 353.115,103.427 353.500 C 103.855 353.885,105.013 354.632,106.002 355.160 C 106.991 355.688,108.790 356.707,110.000 357.424 C 111.210 358.141,112.875 358.960,113.700 359.244 C 114.525 359.528,115.200 359.905,115.200 360.080 C 115.200 360.256,115.560 360.400,116.000 360.400 C 116.440 360.400,116.800 360.580,116.800 360.800 C 116.800 361.020,117.025 361.203,117.300 361.208 C 117.575 361.212,119.407 362.013,121.371 362.987 C 123.335 363.962,125.090 364.668,125.271 364.556 C 125.452 364.444,125.600 364.543,125.600 364.776 C 125.600 365.009,125.960 365.200,126.400 365.200 C 126.840 365.200,127.200 365.380,127.200 365.600 C 127.200 365.820,127.560 366.000,128.000 366.000 C 128.440 366.000,128.800 366.180,128.800 366.400 C 128.800 366.620,129.155 366.800,129.588 366.800 C 130.021 366.800,131.017 367.160,131.800 367.600 C 132.583 368.040,133.543 368.400,133.932 368.400 C 134.321 368.400,134.814 368.574,135.027 368.787 C 135.239 368.999,135.995 369.217,136.707 369.272 C 137.418 369.326,138.000 369.512,138.000 369.685 C 138.000 369.858,138.349 370.000,138.776 370.000 C 139.203 370.000,139.664 370.180,139.800 370.400 C 139.936 370.620,140.667 370.800,141.424 370.800 C 142.181 370.800,142.800 370.960,142.800 371.157 C 142.800 371.475,143.930 371.915,145.576 372.238 C 145.894 372.301,146.614 372.483,147.176 372.643 C 147.739 372.804,148.290 372.958,148.400 372.987 C 148.510 373.016,148.960 373.158,149.400 373.304 C 149.840 373.450,150.650 373.656,151.200 373.762 C 151.750 373.868,153.460 374.232,155.000 374.571 C 156.540 374.909,158.295 375.189,158.900 375.193 C 159.505 375.197,160.000 375.380,160.000 375.600 C 160.000 375.822,161.059 376.000,162.376 376.000 C 163.683 376.000,164.852 376.161,164.974 376.358 C 165.250 376.805,167.653 377.193,171.799 377.461 C 173.559 377.574,175.189 377.825,175.421 378.017 C 175.653 378.210,177.133 378.400,178.710 378.439 C 180.288 378.479,181.490 378.654,181.382 378.829 C 181.023 379.409,211.202 379.295,211.920 378.713 C 212.452 378.282,212.500 378.296,212.218 378.800 C 211.945 379.288,211.983 379.307,212.421 378.900 C 212.743 378.601,214.063 378.400,215.704 378.400 C 217.431 378.400,218.356 378.252,218.200 378.000 C 218.043 377.745,219.188 377.600,221.353 377.600 C 223.223 377.600,224.864 377.420,225.000 377.200 C 225.136 376.980,225.957 376.800,226.824 376.800 C 227.691 376.800,228.400 376.620,228.400 376.400 C 228.400 376.176,229.507 376.000,230.920 376.000 C 232.306 376.000,233.630 375.810,233.863 375.577 C 234.096 375.344,235.347 375.060,236.643 374.946 C 237.939 374.832,239.360 374.591,239.800 374.410 C 240.240 374.230,241.680 373.862,243.000 373.593 C 244.320 373.324,245.495 372.954,245.612 372.770 C 245.729 372.587,246.494 372.392,247.312 372.337 C 248.130 372.282,248.800 372.093,248.800 371.918 C 248.800 371.743,249.239 371.600,249.776 371.600 C 250.313 371.600,250.864 371.420,251.000 371.200 C 251.136 370.980,251.777 370.800,252.424 370.800 C 253.071 370.800,253.600 370.659,253.600 370.487 C 253.600 370.315,254.455 369.943,255.500 369.661 C 256.545 369.378,257.713 368.979,258.095 368.773 C 258.477 368.568,259.026 368.400,259.315 368.400 C 260.055 368.400,261.993 367.461,261.997 367.100 C 261.999 366.935,262.414 366.800,262.920 366.800 C 263.974 366.800,265.992 365.947,265.997 365.500 C 265.999 365.335,266.525 365.200,267.167 365.200 C 267.808 365.200,268.393 365.065,268.467 364.900 C 268.540 364.735,269.500 364.177,270.600 363.660 C 271.700 363.142,272.913 362.557,273.295 362.360 C 273.677 362.162,274.272 362.000,274.618 362.000 C 274.964 362.000,275.136 361.820,275.000 361.600 C 274.860 361.373,275.196 361.200,275.776 361.200 C 276.339 361.200,276.800 361.020,276.800 360.800 C 276.800 360.580,277.081 360.400,277.424 360.400 C 277.793 360.400,277.931 360.212,277.762 359.938 C 277.601 359.679,277.651 359.584,277.874 359.722 C 278.093 359.857,278.930 359.615,279.734 359.184 C 280.539 358.753,281.468 358.400,281.799 358.400 C 282.129 358.400,282.400 358.240,282.400 358.043 C 282.400 357.847,282.805 357.583,283.300 357.456 C 283.795 357.329,285.161 356.590,286.335 355.813 C 287.509 355.036,288.563 354.400,288.677 354.400 C 288.791 354.400,289.684 353.860,290.662 353.200 C 291.640 352.540,292.611 352.000,292.820 352.000 C 293.029 352.000,293.200 351.848,293.200 351.663 C 293.200 351.477,294.010 350.909,295.000 350.400 C 295.990 349.891,296.800 349.323,296.800 349.137 C 296.800 348.952,297.070 348.800,297.400 348.800 C 297.730 348.800,298.000 348.642,298.000 348.449 C 298.000 348.255,298.540 347.873,299.200 347.600 C 299.860 347.327,300.400 346.945,300.400 346.751 C 300.400 346.558,300.578 346.400,300.795 346.400 C 301.216 346.400,302.307 345.574,303.832 344.100 C 304.344 343.605,304.889 343.200,305.043 343.200 C 305.460 343.200,308.620 340.806,310.453 339.100 C 311.340 338.275,312.224 337.600,312.417 337.600 C 312.611 337.600,313.581 336.811,314.573 335.847 C 315.564 334.884,316.651 333.989,316.988 333.860 C 317.325 333.731,317.600 333.349,317.600 333.013 C 317.600 332.676,317.788 332.400,318.018 332.400 C 318.248 332.400,318.858 331.995,319.374 331.500 C 319.890 331.005,320.949 330.032,321.728 329.338 C 322.506 328.644,323.036 327.969,322.905 327.838 C 322.774 327.707,322.977 327.600,323.357 327.600 C 323.737 327.600,323.936 327.420,323.800 327.200 C 323.664 326.980,323.863 326.800,324.243 326.800 C 324.623 326.800,324.832 326.698,324.707 326.574 C 324.412 326.279,326.109 324.503,326.500 324.698 C 326.665 324.780,326.800 324.675,326.800 324.464 C 326.800 324.253,327.744 323.118,328.899 321.941 C 330.053 320.763,330.956 319.676,330.907 319.524 C 330.857 319.373,331.128 319.143,331.508 319.015 C 331.889 318.886,332.806 317.975,333.547 316.990 C 334.287 316.006,335.052 315.200,335.247 315.200 C 335.441 315.200,335.600 314.840,335.600 314.400 C 335.600 313.956,335.867 313.600,336.200 313.600 C 336.530 313.600,336.800 313.418,336.800 313.196 C 336.800 312.974,337.340 312.228,338.000 311.537 C 338.660 310.846,339.200 310.153,339.200 309.995 C 339.200 309.838,339.606 309.280,340.103 308.755 C 340.599 308.230,341.724 306.720,342.603 305.400 C 343.481 304.080,344.335 302.940,344.500 302.867 C 344.665 302.793,344.800 302.468,344.800 302.143 C 344.800 301.818,344.953 301.647,345.140 301.763 C 345.327 301.878,345.732 301.486,346.040 300.890 C 346.348 300.295,347.455 298.506,348.500 296.913 C 349.545 295.321,350.400 293.874,350.400 293.698 C 350.400 293.521,350.760 293.117,351.200 292.800 C 351.640 292.483,352.000 291.903,352.000 291.512 C 352.000 291.120,352.146 290.800,352.325 290.800 C 352.504 290.800,352.898 290.170,353.200 289.400 C 353.502 288.630,353.896 288.000,354.075 288.000 C 354.254 288.000,354.400 287.640,354.400 287.200 C 354.400 286.760,354.580 286.400,354.800 286.400 C 355.020 286.400,355.200 286.130,355.200 285.800 C 355.200 285.470,355.366 285.200,355.568 285.200 C 355.771 285.200,356.052 284.672,356.194 284.028 C 356.336 283.383,356.708 282.642,357.021 282.382 C 357.335 282.122,357.505 281.770,357.400 281.600 C 357.295 281.430,357.472 281.072,357.794 280.805 C 358.116 280.538,358.494 279.708,358.634 278.960 C 358.774 278.212,359.049 277.600,359.245 277.600 C 359.440 277.600,359.600 277.240,359.600 276.800 C 359.600 276.360,359.735 275.999,359.900 275.997 C 360.306 275.993,361.200 274.014,361.200 273.120 C 361.200 272.724,361.336 272.400,361.502 272.400 C 361.669 272.400,362.044 271.815,362.337 271.100 C 362.984 269.518,364.357 266.454,364.844 265.505 C 365.040 265.123,365.200 264.572,365.200 264.281 C 365.200 263.989,365.560 263.005,366.000 262.094 C 366.440 261.184,366.800 260.070,366.800 259.619 C 366.800 259.169,366.980 258.800,367.200 258.800 C 367.420 258.800,367.600 258.451,367.600 258.024 C 367.600 257.597,367.780 257.136,368.000 257.000 C 368.220 256.864,368.400 256.133,368.400 255.376 C 368.400 254.619,368.543 254.000,368.717 254.000 C 368.892 254.000,369.275 252.916,369.569 251.592 C 369.863 250.267,370.260 249.086,370.452 248.968 C 370.643 248.850,370.800 248.043,370.800 247.176 C 370.800 246.309,370.980 245.600,371.200 245.600 C 371.420 245.600,371.600 245.251,371.600 244.824 C 371.600 244.397,371.780 243.936,372.000 243.800 C 372.220 243.664,372.408 242.798,372.418 241.876 C 372.427 240.954,372.692 239.480,373.006 238.600 C 373.321 237.720,373.684 236.280,373.815 235.400 C 374.121 233.328,374.316 232.249,374.430 232.000 C 374.578 231.677,374.632 231.193,374.954 227.300 C 375.122 225.265,375.427 223.600,375.630 223.600 C 375.834 223.600,376.000 221.660,376.000 219.280 C 376.000 216.904,376.169 214.789,376.375 214.580 C 377.084 213.862,377.881 190.979,377.183 191.411 C 376.948 191.556,376.800 189.945,376.800 187.247 C 376.800 184.745,376.627 182.741,376.400 182.600 C 376.177 182.462,376.000 180.618,376.000 178.443 C 376.000 176.293,375.865 174.400,375.700 174.238 C 375.535 174.075,375.185 172.020,374.923 169.671 C 374.402 165.002,373.872 161.871,373.185 159.400 C 372.781 157.947,372.367 156.147,371.737 153.100 C 371.612 152.495,371.350 152.000,371.155 152.000 C 370.960 152.000,370.800 151.428,370.800 150.728 C 370.800 149.465,370.222 147.235,369.551 145.905 C 369.358 145.523,369.200 144.848,369.200 144.405 C 369.200 143.962,369.020 143.600,368.800 143.600 C 368.580 143.600,368.400 143.148,368.400 142.595 C 368.400 142.042,368.220 141.232,368.000 140.795 C 367.780 140.358,367.420 139.642,367.200 139.205 C 366.980 138.768,366.800 138.084,366.800 137.685 C 366.800 136.787,365.907 134.807,365.500 134.803 C 365.335 134.801,365.197 134.485,365.194 134.100 C 365.191 133.715,364.914 132.680,364.580 131.800 C 364.245 130.920,363.867 129.885,363.739 129.500 C 363.611 129.115,363.348 128.800,363.153 128.800 C 362.959 128.800,362.800 128.260,362.800 127.600 C 362.800 126.940,362.665 126.399,362.500 126.397 C 362.141 126.393,361.200 124.456,361.200 123.720 C 361.200 123.434,361.020 123.200,360.800 123.200 C 360.580 123.200,360.400 122.840,360.400 122.400 C 360.400 121.960,360.220 121.600,360.000 121.600 C 359.780 121.600,359.600 121.328,359.600 120.995 C 359.600 120.662,359.438 120.077,359.239 119.695 C 359.040 119.313,358.031 117.245,356.995 115.100 C 355.959 112.955,354.952 111.200,354.756 111.200 C 354.560 111.200,354.400 110.840,354.400 110.400 C 354.400 109.960,354.220 109.600,354.000 109.600 C 353.780 109.600,353.600 109.330,353.600 109.000 C 353.600 108.670,353.420 108.400,353.200 108.400 C 352.980 108.400,352.800 108.040,352.800 107.600 C 352.800 107.160,352.620 106.800,352.400 106.800 C 352.180 106.800,352.000 106.440,352.000 106.000 C 352.000 105.560,351.850 105.200,351.668 105.200 C 351.485 105.200,351.081 104.705,350.770 104.100 C 350.460 103.495,349.925 102.730,349.582 102.400 C 349.240 102.070,348.664 101.166,348.304 100.390 C 347.943 99.615,347.203 98.462,346.659 97.829 C 346.115 97.196,345.431 96.211,345.138 95.639 C 344.845 95.068,344.289 94.309,343.903 93.953 C 343.516 93.597,343.200 93.173,343.200 93.011 C 343.200 92.848,342.795 92.206,342.300 91.583 C 341.805 90.960,340.772 89.584,340.005 88.525 C 339.237 87.466,338.292 86.309,337.905 85.953 C 337.517 85.597,337.200 85.135,337.200 84.925 C 337.200 84.716,336.795 84.182,336.300 83.739 C 335.285 82.831,333.200 80.487,333.200 80.254 C 333.200 79.863,318.147 64.400,317.766 64.400 C 317.655 64.400,317.142 63.995,316.628 63.500 C 316.113 63.005,315.032 62.060,314.226 61.400 C 313.419 60.740,312.093 59.619,311.280 58.909 C 310.466 58.199,309.615 57.614,309.388 57.609 C 309.162 57.604,308.717 57.240,308.400 56.800 C 308.083 56.360,307.583 56.000,307.288 56.000 C 306.994 56.000,306.864 55.820,307.000 55.600 C 307.136 55.380,307.006 55.200,306.712 55.200 C 306.417 55.200,305.917 54.840,305.600 54.400 C 305.283 53.960,304.793 53.600,304.512 53.600 C 304.230 53.600,304.000 53.420,304.000 53.200 C 304.000 52.980,303.732 52.800,303.403 52.800 C 303.075 52.800,302.582 52.440,302.307 52.000 C 302.032 51.560,301.531 51.200,301.192 51.200 C 300.854 51.200,300.317 50.840,300.000 50.400 C 299.683 49.960,299.185 49.600,298.894 49.600 C 298.602 49.600,297.914 49.150,297.364 48.600 C 296.814 48.050,296.205 47.600,296.010 47.600 C 295.816 47.600,295.412 47.375,295.113 47.100 C 294.282 46.337,292.876 45.600,292.248 45.600 C 291.939 45.600,291.579 45.321,291.448 44.981 C 291.317 44.641,290.668 44.173,290.005 43.942 C 289.342 43.711,288.800 43.359,288.800 43.161 C 288.800 42.962,288.440 42.800,288.000 42.800 C 287.560 42.800,287.199 42.665,287.199 42.500 C 287.198 42.335,286.208 41.750,285.000 41.200 C 283.792 40.650,282.802 40.065,282.801 39.900 C 282.801 39.735,282.530 39.600,282.200 39.600 C 281.870 39.600,281.600 39.420,281.600 39.200 C 281.600 38.980,281.285 38.796,280.900 38.791 C 280.515 38.786,279.750 38.430,279.200 38.000 C 278.650 37.570,277.885 37.214,277.500 37.209 C 277.115 37.204,276.800 37.020,276.800 36.800 C 276.800 36.580,276.485 36.396,276.100 36.391 C 275.715 36.386,274.950 36.030,274.400 35.600 C 273.850 35.170,273.023 34.814,272.562 34.809 C 272.101 34.804,271.398 34.440,271.000 34.000 C 270.602 33.560,269.854 33.200,269.338 33.200 C 268.822 33.200,268.400 33.041,268.400 32.847 C 268.400 32.537,268.041 32.365,266.200 31.793 C 265.980 31.725,265.051 31.397,264.136 31.065 C 263.221 30.733,262.366 30.567,262.236 30.697 C 262.106 30.827,262.000 30.752,262.000 30.531 C 262.000 30.030,260.234 29.200,259.167 29.200 C 258.730 29.200,257.951 28.924,257.436 28.587 C 256.520 27.986,255.719 27.728,253.500 27.314 C 252.895 27.201,252.400 26.988,252.400 26.840 C 252.400 26.691,251.818 26.526,251.107 26.472 C 250.395 26.417,249.639 26.199,249.427 25.987 C 249.214 25.774,248.255 25.600,247.296 25.600 C 246.236 25.600,245.650 25.443,245.800 25.200 C 245.940 24.974,245.612 24.800,245.047 24.800 C 244.497 24.800,243.936 24.620,243.800 24.400 C 243.664 24.180,242.743 24.000,241.753 24.000 C 240.655 24.000,240.049 23.844,240.200 23.600 C 240.340 23.374,240.012 23.200,239.447 23.200 C 238.897 23.200,238.336 23.020,238.200 22.800 C 238.064 22.580,236.963 22.400,235.753 22.400 C 234.388 22.400,233.647 22.248,233.800 22.000 C 233.951 21.756,233.345 21.600,232.247 21.600 C 231.257 21.600,230.336 21.420,230.200 21.200 C 230.064 20.980,228.883 20.800,227.576 20.800 C 226.259 20.800,225.200 20.622,225.200 20.400 C 225.200 20.165,223.808 20.000,221.824 20.000 C 219.967 20.000,218.336 19.820,218.200 19.600 C 218.064 19.380,216.883 19.200,215.576 19.200 C 214.259 19.200,213.200 19.022,213.200 18.800 C 213.200 18.332,181.106 18.227,180.640 18.693 M208.800 27.809 C 222.831 29.053,229.950 30.250,241.633 33.330 C 247.792 34.953,257.637 38.310,261.912 40.244 C 263.073 40.770,264.112 41.200,264.220 41.200 C 264.979 41.200,276.615 47.017,281.700 49.938 C 282.525 50.412,283.875 51.181,284.700 51.647 C 286.705 52.780,294.947 58.236,297.200 59.923 C 298.190 60.664,299.526 61.659,300.170 62.135 C 321.825 78.148,342.147 103.638,353.002 128.400 C 354.015 130.710,355.088 133.140,355.388 133.800 C 356.800 136.913,360.277 147.103,361.733 152.400 C 364.908 163.951,366.376 172.201,367.568 185.200 C 368.184 191.921,368.492 202.122,368.096 202.699 C 367.825 203.095,350.453 203.219,284.377 203.299 L 201.000 203.400 200.899 286.452 C 200.808 360.964,200.734 369.557,200.177 370.019 C 199.513 370.570,183.550 369.975,178.000 369.191 C 165.163 367.380,161.425 366.693,154.200 364.818 C 145.860 362.653,136.927 359.664,131.304 357.156 C 130.372 356.740,129.505 356.400,129.379 356.400 C 128.674 356.400,116.806 350.508,111.800 347.673 C 109.161 346.178,100.520 340.601,96.400 337.732 C 85.786 330.343,72.642 317.878,63.360 306.400 C 45.782 284.663,33.879 259.066,28.391 231.200 C 27.561 226.990,27.311 225.290,26.148 216.000 C 25.379 209.850,25.256 188.896,25.955 183.200 C 27.682 169.141,28.563 164.175,30.924 155.200 C 33.155 146.722,36.150 138.079,39.519 130.400 C 41.714 125.397,46.249 116.492,48.434 112.895 C 49.295 111.478,50.000 110.249,50.000 110.165 C 50.000 109.700,57.888 98.071,59.879 95.600 C 60.145 95.270,61.645 93.380,63.213 91.400 C 86.874 61.517,125.245 37.824,160.800 31.143 C 162.010 30.915,163.810 30.573,164.800 30.382 C 179.461 27.557,195.423 26.623,208.800 27.809 M113.480 91.453 C 113.326 91.607,113.200 98.273,113.200 106.267 L 113.200 120.800 99.500 120.806 C 83.482 120.813,84.734 120.451,84.883 125.034 L 85.000 128.600 99.100 128.705 L 113.200 128.810 113.200 143.597 L 113.200 158.385 114.101 158.611 C 114.597 158.735,116.442 158.784,118.201 158.719 L 121.400 158.600 121.600 143.800 L 121.800 129.000 135.780 128.895 C 151.755 128.774,150.385 129.182,150.394 124.543 C 150.402 120.440,151.847 120.800,135.372 120.800 L 121.610 120.800 121.505 106.100 L 121.400 91.400 117.580 91.286 C 115.479 91.224,113.634 91.299,113.480 91.453 M238.486 126.100 L 238.600 130.200 275.900 130.302 L 313.200 130.404 313.200 126.202 L 313.200 122.000 275.786 122.000 L 238.372 122.000 238.486 126.100 M128.800 253.800 C 123.193 259.410,118.426 264.000,118.206 264.000 C 117.986 264.000,113.350 259.547,107.903 254.103 L 98.001 244.207 95.304 246.904 L 92.607 249.601 102.503 259.503 C 107.947 264.950,112.400 269.583,112.400 269.800 C 112.400 270.017,107.690 274.907,101.933 280.667 L 91.466 291.139 94.199 293.970 C 95.702 295.526,97.081 296.800,97.264 296.800 C 97.447 296.800,102.298 292.125,108.043 286.410 C 116.428 278.071,118.619 276.092,119.145 276.385 C 119.505 276.585,124.029 280.991,129.197 286.175 C 134.365 291.359,138.770 295.600,138.985 295.600 C 139.513 295.600,144.000 291.134,144.000 290.609 C 144.000 290.381,139.590 285.787,134.200 280.400 C 128.810 275.013,124.400 270.484,124.400 270.334 C 124.400 270.185,128.990 265.471,134.600 259.858 C 140.210 254.246,144.800 249.411,144.800 249.115 C 144.800 248.504,139.987 243.600,139.386 243.600 C 139.171 243.600,134.407 248.190,128.800 253.800 M316.713 255.289 C 316.824 259.467,316.803 259.584,315.913 259.799 C 315.411 259.920,298.440 259.970,278.200 259.910 L 241.400 259.800 241.287 255.298 L 241.174 250.796 278.887 250.898 L 316.600 251.000 316.713 255.289 M316.315 287.539 C 316.693 287.779,316.799 288.968,316.715 292.033 L 316.600 296.200 278.900 296.302 L 241.200 296.404 241.200 292.069 C 241.200 289.684,241.320 287.613,241.467 287.467 C 241.854 287.079,315.703 287.151,316.315 287.539 " stroke="none" fill="#cdcccc" fill-rule="evenodd"></path><path id="path1" d="M193.600 111.367 C 193.600 157.219,193.491 195.019,193.357 195.367 C 193.137 195.941,185.381 196.000,109.557 196.000 L 26.000 196.000 26.000 199.200 L 26.000 202.400 109.320 202.400 C 173.591 202.400,192.750 202.510,193.120 202.880 C 193.490 203.250,193.600 222.364,193.600 286.480 L 193.600 369.600 196.800 369.600 L 200.000 369.600 200.000 286.480 C 200.000 222.364,200.110 203.250,200.480 202.880 C 200.850 202.510,220.009 202.400,284.280 202.400 L 367.600 202.400 367.600 199.201 L 367.600 196.002 283.900 195.901 L 200.200 195.800 200.099 111.900 L 199.998 28.000 196.799 28.000 L 193.600 28.000 193.600 111.367 M241.600 255.400 L 241.600 259.200 278.800 259.200 L 316.000 259.200 316.000 255.400 L 316.000 251.600 278.800 251.600 L 241.600 251.600 241.600 255.400 M241.600 291.998 L 241.600 296.000 278.814 296.000 L 316.029 296.000 315.914 292.100 L 315.800 288.200 278.700 288.098 L 241.600 287.996 241.600 291.998 " stroke="none" fill="#080809" fill-rule="evenodd"></path><path id="path2" d="M187.000 28.041 C 174.621 28.758,157.588 31.665,148.624 34.591 C 147.731 34.883,145.200 35.686,143.000 36.376 C 140.800 37.066,138.640 37.787,138.200 37.978 C 137.760 38.170,136.140 38.808,134.600 39.397 C 133.060 39.986,131.215 40.722,130.500 41.034 C 129.785 41.345,128.525 41.892,127.700 42.249 C 97.163 55.468,69.967 79.183,51.099 109.048 C 48.203 113.632,42.480 124.511,40.288 129.600 C 39.956 130.370,39.322 131.810,38.879 132.800 C 35.041 141.383,30.864 155.452,28.667 167.200 C 27.723 172.246,27.474 173.978,26.426 182.800 C 26.203 184.670,25.972 188.180,25.911 190.600 L 25.800 195.000 109.300 195.101 L 192.800 195.202 192.800 111.401 C 192.800 65.310,192.755 27.626,192.700 27.658 C 192.645 27.690,190.080 27.863,187.000 28.041 M200.702 111.542 L 200.804 195.200 284.202 195.200 L 367.600 195.200 367.594 192.500 C 367.536 167.999,357.906 134.784,344.428 112.598 C 343.533 111.124,342.800 109.841,342.800 109.746 C 342.800 109.167,331.104 92.567,330.014 91.600 C 329.890 91.490,328.984 90.410,328.001 89.200 C 317.072 75.755,301.086 62.014,285.200 52.409 C 280.182 49.376,268.142 43.158,264.000 41.461 C 263.010 41.056,261.660 40.486,261.000 40.196 C 259.381 39.483,255.962 38.263,250.200 36.341 C 236.195 31.669,220.595 28.722,206.800 28.143 L 200.600 27.883 200.702 111.542 M121.226 91.214 C 121.970 91.612,122.000 92.203,122.000 106.209 L 122.000 120.790 136.100 120.895 L 150.200 121.000 150.200 124.800 L 150.200 128.600 136.200 128.800 L 122.200 129.000 122.000 143.800 L 121.800 158.600 117.600 158.600 L 113.400 158.600 113.200 143.800 L 113.000 129.000 98.800 128.800 L 84.600 128.600 84.600 124.800 L 84.600 121.000 98.900 120.895 L 113.200 120.790 113.200 106.028 C 113.200 94.593,113.313 91.221,113.700 91.065 C 114.642 90.685,120.452 90.800,121.226 91.214 M313.115 121.939 C 313.493 122.179,313.600 123.329,313.515 126.233 L 313.400 130.200 275.900 130.302 L 238.400 130.404 238.400 126.235 C 238.400 123.275,238.545 122.008,238.900 121.865 C 239.754 121.520,312.570 121.593,313.115 121.939 M25.964 203.500 C 25.805 204.803,26.094 212.348,26.388 214.600 C 26.589 216.140,26.964 219.200,27.221 221.400 C 28.666 233.761,33.622 252.517,38.212 263.000 C 38.501 263.660,39.124 265.184,39.597 266.387 C 41.558 271.376,47.748 283.228,51.423 289.034 C 54.143 293.328,55.769 295.797,56.013 296.000 C 56.145 296.110,56.861 297.100,57.605 298.200 C 64.119 307.834,79.618 324.361,88.600 331.252 C 89.260 331.758,89.890 332.271,90.000 332.392 C 91.201 333.707,106.361 344.400,107.025 344.400 C 107.163 344.400,107.754 344.739,108.338 345.153 C 110.288 346.535,112.943 347.982,120.408 351.731 C 129.274 356.183,134.275 358.259,143.200 361.190 C 149.673 363.315,158.962 365.775,163.600 366.590 C 175.309 368.650,183.632 369.600,189.969 369.600 L 192.800 369.600 192.800 286.400 L 192.800 203.200 109.400 203.200 C 63.530 203.200,25.984 203.335,25.964 203.500 M142.593 246.298 C 144.027 247.782,145.200 249.089,145.200 249.201 C 145.200 249.314,140.610 253.993,135.000 259.600 C 129.390 265.207,124.800 269.977,124.800 270.200 C 124.800 270.424,129.120 274.923,134.400 280.200 C 139.876 285.673,144.000 290.105,144.000 290.519 C 144.000 291.191,139.503 296.000,138.874 296.000 C 138.720 296.000,134.187 291.590,128.800 286.200 C 123.413 280.810,118.823 276.400,118.600 276.400 C 118.377 276.400,113.607 280.990,108.000 286.600 C 102.393 292.210,97.583 296.800,97.310 296.800 C 96.700 296.800,91.600 291.753,91.600 291.149 C 91.600 290.909,96.288 286.017,102.017 280.276 L 112.434 269.840 102.617 260.017 C 97.218 254.614,92.800 249.931,92.800 249.609 C 92.800 248.829,97.208 244.400,97.985 244.400 C 98.320 244.400,103.012 248.816,108.413 254.213 L 118.231 264.025 128.416 253.829 C 134.017 248.222,138.912 243.626,139.293 243.617 C 139.674 243.608,141.159 244.814,142.593 246.298 " stroke="none" fill="#ec4424" fill-rule="evenodd"></path><path id="path3" d="M193.067 27.867 C 192.920 28.013,192.800 65.723,192.800 111.667 L 192.800 195.200 109.408 195.200 L 26.015 195.200 25.788 196.105 C 25.663 196.602,25.615 198.357,25.681 200.005 L 25.800 203.000 109.300 203.101 L 192.800 203.202 192.800 286.393 L 192.800 369.585 193.708 369.813 C 194.208 369.938,195.873 369.977,197.408 369.899 L 200.200 369.757 196.900 369.678 L 193.600 369.600 193.600 286.480 C 193.600 222.364,193.490 203.250,193.120 202.880 C 192.750 202.510,173.591 202.400,109.320 202.400 L 26.000 202.400 26.000 199.200 L 26.000 196.000 109.557 196.000 C 185.381 196.000,193.137 195.941,193.357 195.367 C 193.491 195.019,193.600 157.219,193.600 111.367 L 193.600 28.000 196.799 28.000 L 199.998 28.000 200.099 111.900 L 200.200 195.800 283.900 195.901 L 367.600 196.002 367.600 199.201 L 367.600 202.400 284.280 202.400 C 220.009 202.400,200.850 202.510,200.480 202.880 C 200.109 203.251,200.022 222.232,200.099 286.380 L 200.197 369.400 200.399 286.200 L 200.600 203.000 284.200 202.800 L 367.800 202.600 367.920 199.808 C 367.987 198.273,367.938 196.608,367.813 196.108 L 367.585 195.200 284.192 195.200 L 200.800 195.200 200.800 112.033 C 200.800 66.291,200.691 28.581,200.557 28.233 C 200.306 27.578,193.679 27.254,193.067 27.867 M241.372 251.730 C 241.259 252.023,241.219 253.869,241.283 255.832 L 241.400 259.400 278.800 259.400 L 316.200 259.400 316.200 255.400 L 316.200 251.400 278.888 251.298 C 248.080 251.214,241.541 251.289,241.372 251.730 M316.000 255.400 L 316.000 259.200 278.800 259.200 L 241.600 259.200 241.600 255.400 L 241.600 251.600 278.800 251.600 L 316.000 251.600 316.000 255.400 M278.600 287.997 L 315.800 288.200 316.023 292.200 L 316.245 296.200 316.323 292.143 C 316.387 288.765,316.294 288.045,315.767 287.843 C 315.419 287.709,298.544 287.644,278.267 287.697 L 241.400 287.794 278.600 287.997 M241.344 292.000 C 241.344 294.090,241.412 294.945,241.494 293.900 C 241.576 292.855,241.576 291.145,241.494 290.100 C 241.412 289.055,241.344 289.910,241.344 292.000 " stroke="none" fill="#89341a" fill-rule="evenodd"></path><path id="path4" d="M184.000 27.827 C 180.810 28.106,177.855 28.349,177.433 28.367 C 177.012 28.385,176.756 28.490,176.866 28.599 C 176.975 28.708,179.390 28.628,182.232 28.421 C 192.743 27.653,196.785 27.573,204.600 27.978 C 209.000 28.206,213.500 28.505,214.600 28.642 C 215.700 28.779,216.488 28.773,216.352 28.631 C 215.260 27.486,193.945 26.956,184.000 27.827 M171.600 29.217 C 170.735 29.409,171.346 29.446,173.200 29.312 C 174.850 29.193,176.275 29.029,176.367 28.948 C 176.658 28.690,173.057 28.893,171.600 29.217 M217.233 28.945 C 217.325 29.025,218.660 29.189,220.200 29.309 C 221.898 29.441,222.528 29.402,221.800 29.211 C 220.584 28.891,216.927 28.678,217.233 28.945 M166.800 30.020 C 166.126 30.249,166.451 30.284,167.800 30.128 C 168.900 30.001,169.875 29.831,169.967 29.749 C 170.282 29.468,167.799 29.680,166.800 30.020 M223.800 29.859 C 227.749 30.680,231.296 31.237,231.470 31.063 C 231.587 30.947,230.988 30.741,230.141 30.605 C 229.293 30.469,227.845 30.187,226.923 29.979 C 226.000 29.771,224.740 29.621,224.123 29.646 C 223.342 29.679,223.244 29.743,223.800 29.859 M162.600 30.800 L 161.800 31.144 162.600 31.125 C 163.040 31.114,163.940 30.968,164.600 30.800 L 165.800 30.495 164.600 30.475 C 163.940 30.465,163.040 30.611,162.600 30.800 M157.000 31.936 C 155.680 32.282,154.870 32.615,155.200 32.678 C 155.530 32.740,157.060 32.450,158.600 32.032 C 160.140 31.614,160.950 31.280,160.400 31.290 C 159.850 31.300,158.320 31.591,157.000 31.936 M235.000 32.027 C 237.958 32.824,238.676 32.943,238.307 32.573 C 238.017 32.284,233.595 31.221,232.800 31.250 C 232.470 31.262,233.460 31.612,235.000 32.027 M152.200 33.200 L 151.400 33.544 152.200 33.544 C 152.640 33.544,153.360 33.389,153.800 33.200 L 154.600 32.856 153.800 32.856 C 153.360 32.856,152.640 33.011,152.200 33.200 M239.600 33.200 C 240.968 33.638,242.019 33.638,241.000 33.200 C 240.560 33.011,239.840 32.862,239.400 32.868 C 238.757 32.877,238.796 32.943,239.600 33.200 M149.400 34.000 C 148.896 34.217,148.822 34.344,149.200 34.344 C 149.530 34.344,150.160 34.189,150.600 34.000 C 151.104 33.783,151.178 33.656,150.800 33.656 C 150.470 33.656,149.840 33.811,149.400 34.000 M244.200 34.431 C 245.520 34.848,246.780 35.129,247.000 35.056 C 247.467 34.902,243.135 33.582,242.338 33.636 C 242.042 33.657,242.880 34.014,244.200 34.431 M146.800 34.800 C 146.267 35.145,146.267 35.188,146.800 35.188 C 147.130 35.188,147.670 35.013,148.000 34.800 C 148.533 34.455,148.533 34.412,148.000 34.412 C 147.670 34.412,147.130 34.587,146.800 34.800 M143.000 36.000 C 141.900 36.406,141.270 36.738,141.600 36.738 C 141.930 36.738,143.100 36.406,144.200 36.000 C 145.300 35.594,145.930 35.262,145.600 35.262 C 145.270 35.262,144.100 35.594,143.000 36.000 M247.633 35.360 C 247.973 35.687,254.110 37.623,254.277 37.456 C 254.373 37.361,253.044 36.814,251.324 36.241 C 248.381 35.261,247.249 34.991,247.633 35.360 M133.282 39.468 C 130.797 40.474,128.856 41.389,128.968 41.501 C 129.080 41.613,129.763 41.428,130.486 41.089 C 132.898 39.959,136.932 38.400,137.445 38.400 C 137.724 38.400,138.064 38.220,138.200 38.000 C 138.589 37.371,138.093 37.519,133.282 39.468 M256.200 38.371 C 257.080 38.794,258.070 39.139,258.400 39.138 C 259.084 39.134,257.105 38.225,255.600 37.850 C 255.050 37.714,255.320 37.948,256.200 38.371 M260.571 40.016 C 261.436 40.447,262.336 40.794,262.571 40.786 C 263.100 40.770,259.956 39.226,259.400 39.230 C 259.180 39.231,259.707 39.585,260.571 40.016 M263.401 41.201 C 263.536 41.421,263.819 41.600,264.028 41.600 C 264.337 41.600,267.220 42.818,268.500 43.490 C 268.665 43.576,268.800 43.551,268.800 43.434 C 268.800 43.223,266.183 41.954,264.178 41.192 C 263.501 40.934,263.238 40.937,263.401 41.201 M127.600 41.897 C 125.403 42.753,119.534 45.667,119.691 45.824 C 119.796 45.929,121.529 45.202,123.541 44.208 C 125.554 43.213,127.370 42.400,127.577 42.400 C 127.784 42.400,128.064 42.220,128.200 42.000 C 128.471 41.561,128.465 41.560,127.600 41.897 M269.233 43.754 C 269.712 44.196,276.842 47.592,276.655 47.289 C 276.425 46.916,269.864 43.600,269.357 43.600 C 269.197 43.600,269.142 43.669,269.233 43.754 M116.331 47.335 C 113.220 49.076,112.858 49.573,115.800 48.064 C 118.535 46.661,119.579 46.000,119.000 46.039 C 118.780 46.054,117.579 46.637,116.331 47.335 M278.800 48.590 C 278.800 48.694,279.385 49.065,280.100 49.414 L 281.400 50.048 280.400 49.233 C 279.437 48.448,278.800 48.192,278.800 48.590 M109.929 50.929 C 108.460 51.848,107.110 52.771,106.929 52.979 C 106.748 53.187,107.050 53.079,107.600 52.737 C 108.150 52.396,109.635 51.533,110.900 50.820 C 113.053 49.607,113.614 49.160,112.900 49.229 C 112.735 49.245,111.398 50.010,109.929 50.929 M281.600 50.190 C 281.600 50.294,282.185 50.665,282.900 51.014 L 284.200 51.648 283.200 50.833 C 282.237 50.048,281.600 49.792,281.600 50.190 M284.620 51.953 C 285.229 52.518,291.600 56.379,291.600 56.183 C 291.600 55.954,284.860 51.600,284.506 51.600 C 284.360 51.600,284.411 51.759,284.620 51.953 M101.533 56.262 C 87.549 65.707,73.820 78.135,64.705 89.600 C 62.016 92.982,62.990 91.990,68.069 86.173 C 77.522 75.347,90.147 64.275,102.000 56.413 C 105.906 53.823,106.742 53.200,106.313 53.200 C 106.177 53.200,104.026 54.578,101.533 56.262 M292.200 56.690 C 293.062 57.569,300.000 62.387,299.993 62.102 C 299.989 61.936,299.134 61.222,298.093 60.516 C 297.052 59.810,295.480 58.722,294.600 58.098 C 292.628 56.700,291.641 56.121,292.200 56.690 M300.400 62.533 C 300.400 62.660,301.196 63.371,302.168 64.113 C 310.301 70.323,323.508 83.223,328.453 89.787 C 329.194 90.770,329.963 91.581,330.162 91.588 C 330.586 91.602,330.566 91.577,325.326 85.600 C 319.144 78.548,310.892 70.642,303.800 64.977 C 300.712 62.510,300.400 62.285,300.400 62.533 M115.712 91.095 C 116.764 91.177,118.384 91.176,119.312 91.092 C 120.240 91.008,119.380 90.941,117.400 90.942 C 115.420 90.943,114.660 91.012,115.712 91.095 M121.600 106.120 L 121.799 121.000 121.905 106.425 C 121.963 98.409,121.873 91.713,121.705 91.545 C 121.537 91.377,121.490 97.936,121.600 106.120 M330.831 92.637 C 331.144 93.061,332.675 95.116,334.234 97.204 C 337.197 101.173,341.439 107.392,342.738 109.669 C 343.156 110.401,344.443 112.620,345.599 114.600 C 346.755 116.580,349.108 121.080,350.829 124.600 C 352.549 128.120,353.967 130.827,353.978 130.615 C 354.157 127.417,334.103 94.241,330.731 92.157 C 330.473 91.998,330.518 92.214,330.831 92.637 M60.923 94.300 C 60.308 95.125,59.705 95.890,59.584 96.000 C 59.204 96.344,54.548 102.968,54.242 103.600 C 53.846 104.417,54.762 103.254,57.863 99.000 C 59.307 97.020,60.927 94.815,61.464 94.100 C 62.001 93.385,62.351 92.800,62.241 92.800 C 62.131 92.800,61.538 93.475,60.923 94.300 M53.311 104.900 C 52.529 105.911,52.263 106.532,52.736 106.240 C 53.210 105.947,54.157 104.400,53.863 104.400 C 53.772 104.400,53.524 104.625,53.311 104.900 M51.053 108.391 C 49.921 110.102,49.625 111.118,50.643 109.800 C 51.382 108.844,52.485 106.800,52.263 106.800 C 52.177 106.800,51.632 107.516,51.053 108.391 M48.061 113.500 C 46.408 116.336,41.533 125.701,41.086 126.900 C 40.418 128.692,41.302 127.247,43.021 123.735 C 44.745 120.216,46.378 117.177,49.059 112.500 C 49.595 111.565,49.944 110.800,49.835 110.800 C 49.725 110.800,48.927 112.015,48.061 113.500 M84.667 121.067 C 84.298 121.435,84.329 128.309,84.700 128.540 C 84.865 128.642,84.942 127.097,84.870 125.105 C 84.774 122.421,84.877 121.397,85.270 121.148 C 85.562 120.963,85.605 120.809,85.367 120.806 C 85.128 120.803,84.813 120.920,84.667 121.067 M257.500 121.900 C 267.675 121.959,284.325 121.959,294.500 121.900 C 304.675 121.840,296.350 121.792,276.000 121.792 C 255.650 121.792,247.325 121.840,257.500 121.900 M313.348 126.000 C 313.348 128.310,313.414 129.255,313.495 128.100 C 313.576 126.945,313.576 125.055,313.495 123.900 C 313.414 122.745,313.348 123.690,313.348 126.000 M39.040 131.440 C 38.218 133.332,37.615 134.948,37.699 135.033 C 37.783 135.117,38.182 134.424,38.585 133.493 C 38.988 132.562,39.675 131.028,40.110 130.085 C 40.546 129.141,40.820 128.286,40.718 128.185 C 40.617 128.083,39.862 129.548,39.040 131.440 M121.791 129.300 C 121.480 130.145,121.381 158.780,121.690 158.470 C 121.955 158.206,122.348 128.799,122.087 128.800 C 122.026 128.800,121.892 129.025,121.791 129.300 M354.830 133.500 C 354.890 134.111,356.342 136.984,356.370 136.549 C 356.407 135.990,355.261 133.200,354.995 133.200 C 354.888 133.200,354.813 133.335,354.830 133.500 M36.240 138.440 C 34.856 142.173,35.138 142.455,36.580 138.780 C 37.190 137.226,37.602 135.868,37.496 135.763 C 37.390 135.657,36.825 136.862,36.240 138.440 M356.433 137.246 C 356.415 137.381,357.002 139.110,357.737 141.088 C 358.473 143.067,359.772 147.043,360.623 149.924 C 361.475 152.805,362.240 155.094,362.323 155.010 C 362.535 154.798,360.608 148.134,359.022 143.600 C 357.641 139.648,356.489 136.822,356.433 137.246 M34.600 142.800 C 34.450 143.273,34.417 143.750,34.527 143.860 C 34.637 143.970,34.850 143.673,35.000 143.200 C 35.150 142.727,35.183 142.250,35.073 142.140 C 34.963 142.030,34.750 142.327,34.600 142.800 M33.800 145.200 C 33.650 145.673,33.617 146.150,33.727 146.260 C 33.837 146.370,34.050 146.073,34.200 145.600 C 34.350 145.127,34.383 144.650,34.273 144.540 C 34.163 144.430,33.950 144.727,33.800 145.200 M33.029 147.829 C 32.881 148.415,32.838 148.972,32.932 149.066 C 33.027 149.160,33.224 148.758,33.371 148.171 C 33.519 147.585,33.562 147.028,33.468 146.934 C 33.373 146.840,33.176 147.242,33.029 147.829 M31.813 151.813 C 30.953 154.771,31.245 155.063,32.160 152.160 C 32.547 150.933,32.776 149.842,32.669 149.735 C 32.562 149.628,32.177 150.563,31.813 151.813 M30.600 156.400 C 30.448 157.091,30.407 157.741,30.509 157.842 C 30.611 157.944,30.809 157.453,30.950 156.750 C 31.283 155.083,30.960 154.760,30.600 156.400 M362.456 156.200 C 362.456 156.640,362.611 157.360,362.800 157.800 L 363.144 158.600 363.144 157.800 C 363.144 157.360,362.989 156.640,362.800 156.200 L 362.456 155.400 362.456 156.200 M29.849 159.015 C 29.712 159.373,29.616 160.056,29.636 160.533 C 29.662 161.147,29.785 161.008,30.059 160.056 C 30.457 158.672,30.294 157.858,29.849 159.015 M363.246 159.000 C 363.185 159.540,364.403 165.336,364.624 165.558 C 364.978 165.912,364.717 164.130,364.013 161.400 C 363.617 159.860,363.271 158.780,363.246 159.000 M29.031 163.000 C 28.881 163.880,28.595 165.320,28.395 166.200 C 27.650 169.480,27.112 173.438,27.306 174.206 C 27.446 174.758,27.521 174.627,27.554 173.777 C 27.579 173.105,28.053 170.235,28.608 167.400 C 29.162 164.565,29.545 162.056,29.459 161.823 C 29.373 161.590,29.180 162.120,29.031 163.000 M364.800 166.733 C 364.800 167.525,366.064 174.590,366.237 174.767 C 366.531 175.067,366.407 173.853,365.768 170.203 C 365.197 166.937,364.800 165.514,364.800 166.733 M26.658 177.074 C 26.162 181.339,25.933 184.588,26.145 184.383 C 26.414 184.121,27.259 175.526,27.038 175.304 C 26.952 175.219,26.781 176.015,26.658 177.074 M366.485 177.200 C 366.477 177.970,366.610 179.500,366.782 180.600 C 367.085 182.548,367.094 182.559,367.117 181.000 C 367.130 180.120,366.997 178.590,366.820 177.600 C 366.525 175.942,366.499 175.911,366.485 177.200 M367.495 189.829 C 367.663 193.113,367.800 197.330,367.800 199.200 L 367.800 202.600 284.200 202.800 L 200.600 203.000 200.400 286.267 C 200.290 332.063,200.071 369.663,199.913 369.821 C 199.657 370.077,185.265 369.499,179.600 369.006 C 177.739 368.844,177.616 368.870,178.800 369.178 C 181.515 369.883,199.491 370.589,200.180 370.017 C 200.733 369.557,200.809 360.806,200.899 286.452 L 201.000 203.400 284.493 203.299 L 367.985 203.198 368.231 202.217 C 368.508 201.113,367.753 184.420,367.411 184.077 C 367.290 183.956,367.328 186.544,367.495 189.829 M25.750 189.000 C 25.751 191.420,25.816 192.358,25.896 191.085 C 25.976 189.812,25.975 187.832,25.894 186.685 C 25.814 185.538,25.749 186.580,25.750 189.000 M25.467 195.067 C 25.098 195.435,25.129 203.109,25.500 203.338 C 25.665 203.439,25.800 201.560,25.800 199.161 C 25.800 196.762,25.785 194.800,25.767 194.800 C 25.748 194.800,25.613 194.920,25.467 195.067 M25.750 208.600 C 25.751 211.020,25.816 211.958,25.896 210.685 C 25.976 209.412,25.975 207.432,25.894 206.285 C 25.814 205.138,25.749 206.180,25.750 208.600 M26.279 216.400 C 26.402 218.270,26.570 219.875,26.651 219.967 C 26.939 220.289,26.750 216.182,26.405 214.600 C 26.156 213.457,26.120 213.972,26.279 216.400 M27.260 223.884 C 27.193 225.324,29.816 238.762,30.240 239.151 C 30.390 239.288,30.407 238.950,30.277 238.400 C 29.853 236.600,27.631 225.029,27.474 223.800 L 27.320 222.600 27.260 223.884 M30.468 240.200 C 30.462 240.640,30.611 241.360,30.800 241.800 C 31.238 242.819,31.238 241.768,30.800 240.400 C 30.543 239.596,30.477 239.557,30.468 240.200 M31.236 243.138 C 31.182 243.935,32.502 248.267,32.656 247.800 C 32.729 247.580,32.448 246.320,32.031 245.000 C 31.614 243.680,31.257 242.842,31.236 243.138 M94.987 246.900 L 92.600 249.400 95.100 247.013 C 97.422 244.795,97.783 244.400,97.487 244.400 C 97.426 244.400,96.301 245.525,94.987 246.900 M108.000 254.200 C 113.387 259.590,117.884 264.000,117.994 264.000 C 118.104 264.000,113.787 259.590,108.400 254.200 C 103.013 248.810,98.516 244.400,98.406 244.400 C 98.296 244.400,102.613 248.810,108.000 254.200 M32.856 248.800 C 32.856 249.130,33.011 249.760,33.200 250.200 C 33.417 250.704,33.544 250.778,33.544 250.400 C 33.544 250.070,33.389 249.440,33.200 249.000 C 32.983 248.496,32.856 248.422,32.856 248.800 M102.400 259.800 C 107.787 265.190,112.284 269.600,112.394 269.600 C 112.504 269.600,108.187 265.190,102.800 259.800 C 97.413 254.410,92.916 250.000,92.806 250.000 C 92.696 250.000,97.013 254.410,102.400 259.800 M241.200 251.098 C 241.200 251.264,258.075 251.400,278.700 251.400 L 316.200 251.400 316.200 255.400 L 316.200 259.400 278.738 259.400 C 258.134 259.400,241.360 259.535,241.462 259.700 C 241.715 260.109,315.669 260.071,316.315 259.661 C 316.693 259.421,316.799 258.232,316.715 255.167 L 316.600 251.000 278.900 250.898 C 258.165 250.842,241.200 250.932,241.200 251.098 M33.612 251.600 C 33.612 251.930,33.787 252.470,34.000 252.800 C 34.345 253.333,34.388 253.333,34.388 252.800 C 34.388 252.470,34.213 251.930,34.000 251.600 C 33.655 251.067,33.612 251.067,33.612 251.600 M34.412 254.000 C 34.412 254.330,34.587 254.870,34.800 255.200 C 35.145 255.733,35.188 255.733,35.188 255.200 C 35.188 254.870,35.013 254.330,34.800 254.000 C 34.455 253.467,34.412 253.467,34.412 254.000 M35.200 256.177 C 35.200 256.731,37.336 261.997,37.496 261.837 C 37.687 261.646,35.599 256.000,35.337 256.000 C 35.262 256.000,35.200 256.080,35.200 256.177 M124.181 258.100 L 122.600 259.800 124.300 258.219 C 125.881 256.748,126.184 256.400,125.881 256.400 C 125.816 256.400,125.051 257.165,124.181 258.100 M37.600 262.568 C 37.600 263.001,41.304 271.229,41.439 271.095 C 41.515 271.019,40.862 269.298,39.989 267.272 C 39.115 265.245,38.400 263.421,38.400 263.217 C 38.400 263.014,38.220 262.736,38.000 262.600 C 37.780 262.464,37.600 262.450,37.600 262.568 M124.400 270.236 C 124.400 270.440,128.855 275.015,134.300 280.403 L 144.200 290.200 134.400 280.215 C 129.010 274.723,124.555 270.148,124.500 270.048 C 124.445 269.948,124.400 270.033,124.400 270.236 M41.890 272.300 C 42.784 274.658,49.437 286.800,49.835 286.800 C 49.944 286.800,49.595 286.035,49.059 285.100 C 46.729 281.035,44.871 277.588,43.453 274.700 C 42.051 271.846,41.254 270.621,41.890 272.300 M128.884 286.187 C 134.320 291.675,138.820 296.083,138.884 295.983 C 138.948 295.882,134.500 291.392,129.000 286.004 L 119.000 276.208 128.884 286.187 M50.451 288.100 C 51.216 289.538,53.695 293.200,53.903 293.200 C 54.007 293.200,53.827 292.795,53.503 292.300 C 53.179 291.805,52.333 290.455,51.623 289.300 C 50.334 287.205,49.543 286.394,50.451 288.100 M241.384 287.627 C 241.239 287.861,241.228 288.161,241.360 288.293 C 241.492 288.425,241.600 288.323,241.600 288.067 C 241.600 287.569,314.481 287.349,315.767 287.843 C 316.285 288.042,316.400 288.804,316.400 292.047 L 316.400 296.008 278.800 295.904 C 258.120 295.847,241.200 295.936,241.200 296.102 C 241.200 296.268,258.165 296.358,278.900 296.302 L 316.600 296.200 316.715 292.033 C 316.799 288.968,316.693 287.779,316.315 287.539 C 315.506 287.026,241.701 287.112,241.384 287.627 M54.362 294.329 C 54.605 294.784,55.001 295.277,55.242 295.426 C 55.556 295.620,55.554 295.462,55.238 294.871 C 54.995 294.416,54.599 293.923,54.358 293.774 C 54.044 293.580,54.046 293.738,54.362 294.329 M57.042 298.100 C 67.515 312.664,86.631 331.975,95.900 337.357 C 97.239 338.134,96.092 337.077,93.300 334.961 C 91.595 333.669,90.110 332.513,90.000 332.392 C 89.890 332.271,89.260 331.758,88.600 331.252 C 79.356 324.160,61.549 305.009,56.933 297.195 C 56.545 296.538,56.071 296.000,55.880 296.000 C 55.688 296.000,56.211 296.945,57.042 298.100 M97.025 338.041 C 97.155 338.251,99.093 339.646,101.331 341.140 C 105.755 344.093,106.839 344.756,106.200 344.118 C 105.499 343.418,96.779 337.642,97.025 338.041 M107.400 345.043 C 108.356 345.782,110.400 346.885,110.400 346.663 C 110.400 346.423,107.259 344.398,106.909 344.413 C 106.739 344.420,106.960 344.703,107.400 345.043 M110.800 346.990 C 110.800 347.094,111.385 347.465,112.100 347.814 L 113.400 348.448 112.400 347.633 C 111.437 346.848,110.800 346.592,110.800 346.990 M113.820 348.748 C 114.451 349.325,123.681 354.001,124.157 353.985 C 124.547 353.971,114.077 348.431,113.620 348.409 C 113.521 348.404,113.611 348.556,113.820 348.748 M126.400 354.995 C 126.400 355.205,129.135 356.411,129.549 356.383 C 129.870 356.362,127.101 354.839,126.700 354.817 C 126.535 354.808,126.400 354.888,126.400 354.995 M131.371 357.186 C 132.236 357.634,133.136 357.993,133.371 357.984 C 133.950 357.962,132.048 356.965,130.800 356.636 C 130.216 356.481,130.453 356.710,131.371 357.186 M136.968 359.417 C 138.270 359.958,139.530 360.392,139.768 360.383 C 140.006 360.374,139.134 359.924,137.832 359.383 C 136.530 358.842,135.270 358.408,135.032 358.417 C 134.794 358.426,135.666 358.876,136.968 359.417 M140.400 360.580 C 140.400 360.949,153.951 364.982,154.235 364.698 C 154.332 364.601,153.194 364.196,151.706 363.797 C 150.218 363.398,147.134 362.471,144.854 361.736 C 140.442 360.314,140.400 360.303,140.400 360.580 M157.400 365.632 C 158.940 366.050,160.470 366.342,160.800 366.282 C 161.477 366.159,156.131 364.777,155.200 364.835 C 154.870 364.855,155.860 365.214,157.400 365.632 M162.600 366.800 C 163.260 366.968,164.250 367.109,164.800 367.113 L 165.800 367.120 164.800 366.800 C 164.250 366.624,163.260 366.483,162.600 366.487 L 161.400 366.495 162.600 366.800 M167.200 367.600 C 167.750 367.776,168.740 367.917,169.400 367.913 L 170.600 367.905 169.400 367.600 C 168.740 367.432,167.750 367.291,167.200 367.287 L 166.200 367.280 167.200 367.600 M171.800 368.400 C 172.460 368.568,173.630 368.705,174.400 368.705 L 175.800 368.705 174.600 368.400 C 173.940 368.232,172.770 368.095,172.000 368.095 L 170.600 368.095 171.800 368.400 " stroke="none" fill="#b78677" fill-rule="evenodd"></path></g></svg>